<?xml version="1.0" encoding="utf-8"?>
<!-- Generator: Adobe Illustrator 18.0.0, SVG Export Plug-In . SVG Version: 6.00 Build 0)  -->
<!DOCTYPE svg PUBLIC "-//W3C//DTD SVG 1.1//EN" "http://www.w3.org/Graphics/SVG/1.1/DTD/svg11.dtd">
<svg version="1.1" id="Layer_1" xmlns="http://www.w3.org/2000/svg" xmlns:xlink="http://www.w3.org/1999/xlink" x="0px" y="0px"
	 viewBox="0 0 1300 800" enable-background="new 0 0 1300 800" xml:space="preserve">
<g>
	<path fill="#D8D8D8" d="M951.8,703c165.9-167.3,165.6-438.3-1.4-605.2c-0.3-0.3-0.3-0.3-0.7-0.7l0,0L932,79.4l-0.3,0.3
		C922,72,908,72.4,899,81.1l0,0l-0.3,0.3l0,0l0,0l-28.9,28.9l0,0l0,0l-2.1,2.1l0.3,0.3c-7,9-7,21.6,0,30.6l-0.3,0.3l2.1,2.1l0,0l0,0
		l15.7,15.7l0.3-0.3c0.3,0.3,0.3,0.3,0.7,0.7c131.5,131.5,131.8,345.4,1.4,477.6l-0.3-0.3l-15.7,15.7l0,0l0,0l-2.1,2.1l0.3,0.3
		c-7.7,9.7-7.3,23.7,1.4,32.7l0,0l0.3,0.3l0,0l0,0l14.6,14.6l0,0l0,0l14.3,14.3l0,0l0,0l2.1,2.1l0.3-0.3c9,7,21.6,7,30.6,0l0.3,0.3
		l16.3-16.3l0,0c0,0,0,0,0.3-0.3L951.8,703L951.8,703z"/>
	<path fill="#FFFFFF" d="M830.7,582.4c99.5-100.9,98.8-263.7-1.4-363.8c-0.3-0.3-0.3-0.3-0.7-0.7l0,0l-17.7-17.7l-0.3,0.3
		c-9.7-7.7-23.7-7.3-32.7,1.4l0,0l-0.3,0.3l0,0l0,0l-28.9,28.9l0,0l0,0l-2.1,2.1l0.3,0.3c-7,9-7,21.6,0,30.6l-0.3,0.3l2.1,2.1l0,0
		l0,0l15.7,15.7l0.3-0.3c0.3,0.3,0.3,0.3,0.7,0.7c65,65,65.4,170.4,1.4,235.8l0,0l-15.7,15.7l0,0l0,0l-2.1,2.1l0.3,0.3
		c-7.7,9.7-7.3,23.7,1.4,32.7l0,0l29.2,29.2l0,0l0,0l2.1,2.1l0.3-0.3c9,7,21.6,7,30.6,0l0.3,0.3l16.3-16.3l0,0l0,0L830.7,582.4
		L830.7,582.4z"/>
	<path fill="#FFFFFF" d="M604.3,536.1L604.3,536.1l-1.7-2.1l0,0l0,0l-15.7-15.7l-0.3,0.3c-0.3-0.3-0.3-0.3-0.7-0.7
		c-65-65-65.4-170.4-1.4-235.8l0,0l17.7-17.7l-0.3-0.3c7.7-9.7,7.3-23.7-1.4-32.7l0,0l-31.3-31.3l-0.3,0.3c-9-7-21.6-7-30.6,0
		l-0.3-0.3l-2.1,2.1l0,0l0,0l-14.3,14.3l0,0l0,0l-1.4,1.4l0,0c-99.5,100.9-98.8,263.7,1.4,363.8c0.3,0.3,0.3,0.3,0.7,0.7l0,0
		l17.7,17.7l0.3-0.3c9.7,7.7,23.7,7.3,32.7-1.4l0,0l0.3-0.3l0,0l0,0l28.9-28.9l0,0l0,0l2.1-2.1l-0.3-0.3
		C611.6,557.7,611.3,545.1,604.3,536.1z"/>
	<path fill="#D8D8D8" d="M483.6,656.8L483.6,656.8l-1.7-2.1l0,0l0,0L466.2,639l-0.3,0.3c-0.3-0.3-0.3-0.3-0.7-0.7
		C333.7,507.1,333.4,293.2,463.8,161l0,0l15.7-15.7l0,0l0,0l2.1-2.1l-0.3-0.3c7.7-9.7,7.3-23.7-1.4-32.7l0,0l-15-15l0,0l0,0
		l-16.3-16.3l-0.3,0.3c-9-7-21.6-7-30.6,0l0,0l-17.4,17.7l0,0c-165.9,167.3-165.6,438.6,1,605.2c0.3,0.3,0.3,0.3,0.7,0.7l0,0
		l17.7,17.7l0.3-0.3c9.7,7.7,23.7,7.3,32.7-1.4l0,0l0.3-0.3l0,0l0,0l28.9-28.9l0,0l0,0l2.1-2.1l-0.3-0.3
		C490.6,678.4,490.6,665.8,483.6,656.8z"/>
</g>
<line fill="none" x1="676.5" y1="400" x2="675.4" y2="400"/>
<path fill="#D8D8D8" d="M708.2,441.7h-60.3c-6.3,0-11.5-5.1-11.5-11.5v-60.4c0-6.3,5.1-11.5,11.5-11.5h60.3
	c6.3,0,11.5,5.1,11.5,11.5v60.4C719.6,436.6,714.5,441.7,708.2,441.7z"/>
</svg>
