<?xml version="1.0" encoding="utf-8"?>
<!-- Generator: Adobe Illustrator 18.0.0, SVG Export Plug-In . SVG Version: 6.00 Build 0)  -->
<!DOCTYPE svg PUBLIC "-//W3C//DTD SVG 1.1//EN" "http://www.w3.org/Graphics/SVG/1.1/DTD/svg11.dtd">
<svg version="1.1" id="Layer_2" xmlns="http://www.w3.org/2000/svg" xmlns:xlink="http://www.w3.org/1999/xlink" x="0px" y="0px"
	 viewBox="0 362.8 595.3 145.1" enable-background="new 0 362.8 595.3 145.1" xml:space="preserve">
<style>.a{fill:#C4DC0A;}.b{fill:#F5F5F5;}</style>
<g>
	<path class="b" d="M571.2,373.6V389H570v-15.4h-3.2v-0.8h7.1v0.8H571.2z"/>
	<path class="b" d="M588.6,389l-1.2-13.8c0-0.4,0-0.8,0-1.2s0-0.8,0-0.8s0,0.4,0,0.8s0,0.8-0.4,1.2l-3.6,13.8h-1.2l-3.2-13.8
		c0-0.4,0-0.8-0.4-1.2c0-0.4,0-0.4,0-0.8v2l-1.2,13.8h-1.2l2-16.2h1.6l3.2,13c0,0.4,0.4,0.8,0.4,1.2s0,0.4,0,0.8c0,0,0-0.4,0-0.8
		s0-0.8,0.4-1.2l3.2-13h1.6l2,16.2H588.6z"/>
</g>
<g>
	<path class="a" d="M49.7,405.6c-2.5-0.8-5-1.2-7.4-1.2c-3.2,0-5.7,0.6-7.6,1.7v59.7h-16v-67c3.7-1.7,8.1-3,13.3-3.8
		c5.2-0.8,12.1-1.2,20.9-1.2L49.7,405.6z"/>
	<path class="a" d="M90.2,467.2c-9.5,0-16.7-3.4-21.8-10.2c-5.1-6.8-7.6-15.6-7.6-26.5c0-11,2.5-19.9,7.5-26.7
		c5-6.7,12.3-10.1,21.9-10.1c9.6,0,16.9,3.3,21.9,10c5,6.7,7.5,15.6,7.5,26.7c0,10.9-2.5,19.8-7.5,26.5
		C107.1,463.8,99.8,467.2,90.2,467.2z M90.2,403.9c-5.2,0-8.7,2.4-10.6,7.2c-1.9,4.8-2.9,11.2-2.9,19.3c0,7.8,1,14,3,18.8
		s5.5,7.1,10.6,7.1c5.3,0,8.8-2.3,10.7-7c1.9-4.7,2.8-11,2.8-18.8c0-8.2-0.9-14.7-2.8-19.4C99.1,406.3,95.5,403.9,90.2,403.9z"/>
	<path class="a" d="M159.4,467.2c-8.3,0-15.1-3.3-20.2-9.8c-5.2-6.5-7.7-15.6-7.7-27.1c0-11.4,2.6-20.3,7.9-26.8
		c5.3-6.5,12-9.7,20.2-9.7c4,0,7.4,0.5,10,1.4c2.6,0.9,4.8,2.1,6.4,3.5l-3.4,9.1c-1.1-0.9-2.5-1.6-3.9-2.2c-1.5-0.6-3.3-0.9-5.5-0.9
		c-5.3,0-9.1,2.2-11.7,6.6c-2.5,4.4-3.8,10.7-3.8,18.7c0,7.9,1.3,14.1,4,18.7c2.7,4.6,6.4,6.9,11.2,6.9c2.2,0,4-0.2,5.4-0.7
		c1.4-0.5,2.8-1.3,4.1-2.4l3.7,9.8c-1.6,1.5-3.7,2.7-6.5,3.5C166.8,466.8,163.4,467.2,159.4,467.2z"/>
	<path class="a" d="M228.9,465.9l-23.6-36.1l-0.3,36h-15.9V362.8H205v64.4l22.7-32.1l16.3,0l-24.4,32.4l27.3,38.3L228.9,465.9z
		"/>
	<path class="a" d="M268.3,436.4c1.3,13.1,7.7,19.7,19.3,19.7c3.9,0,7.2-0.3,10.1-1.1c2.9-0.7,5.5-1.7,7.7-2.9l3.8,10.1
		c-2.7,1.5-6,2.7-9.8,3.6c-3.8,0.9-8.3,1.4-13.6,1.4c-10.2,0-18.2-3.2-24-9.6c-5.9-6.4-8.8-15.5-8.8-27.3c0-11.5,2.7-20.4,8.1-26.8
		c5.4-6.4,12.8-9.6,22.1-9.6c9.4,0,16.4,3,21.2,9.1c4.8,6.1,7.2,15.1,7.2,27.1L268.3,436.4z M282.8,403.7c-4.8,0-8.6,2-11.3,6.1
		c-2.7,4.1-4.1,10.2-4.1,18.5l29.3-4.5c0-6.9-1.2-12-3.6-15.2C290.7,405.3,287.2,403.7,282.8,403.7z"/>
	<path class="a" d="M349.7,466.7c-6.6,0-11.4-1.8-14.6-5.5c-3.2-3.7-4.8-8.2-4.8-13.7v-42.1h-7.9v-10.2h7.9v-15.6l16-4.5v20.1
		h11.6v10.2h-11.6v41.4c0,6.1,2.6,9.2,7.7,9.2c1,0,2.3-0.2,3.8-0.7v10c-0.7,0.4-1.8,0.7-3.3,1C353,466.5,351.4,466.7,349.7,466.7z"
		/>
	<path class="b" d="M397.8,466.8c-1.9,0-3.9-0.1-5.9-0.4c-2-0.3-3.6-0.6-4.7-1.1V494h-15.9v-95.1c3.1-1.7,6.5-2.9,10.4-3.8
		c3.9-0.9,8.6-1.3,14.1-1.3c10.3,0,18.4,3.2,24.3,9.5c5.9,6.3,8.8,15.1,8.8,26.4c0,11.5-2.8,20.5-8.5,27.2
		C414.7,463.5,407.1,466.8,397.8,466.8z M395.4,403.4c-3.2,0-5.9,0.5-8.3,1.4v51.2c1.8,0.8,4.2,1.2,7.1,1.2c6.1,0,10.8-2.3,14-7
		c3.2-4.7,4.8-11.4,4.8-20c0-8.9-1.3-15.6-4-20.1C406.3,405.6,401.8,403.4,395.4,403.4z"/>
	<path class="b" d="M470.8,467.3c-9.3,0-16.2-2-20.7-6c-4.5-4-6.8-10-6.8-17.9v-48.3h16v49.1c0,3.7,1,6.6,2.9,8.7c1.9,2.1,4.9,3.2,9.1,3.2
		c4.3,0,7.8-0.8,10.6-2.4v-58.7h16v66.6c-3.1,1.7-6.9,3-11.6,4.1C481.6,466.8,476.5,467.3,470.8,467.3z"/>
	<path class="b" d="M540.6,495.4c-5.2,0-9.8-0.4-14-1.3c-4.2-0.9-7.5-2.1-10.2-3.6l4.5-10.6c2.1,1.2,4.7,2.2,7.7,3c3.1,0.9,6.1,1.3,9.2,1.3
		c5.7,0,9.8-1.4,12.4-4.2c2.6-2.8,3.9-6.7,3.9-11.8v-4.5c-3.1,1.8-7.5,2.6-13.3,2.6c-8.6,0-15.5-3.1-20.7-9.2
		c-5.2-6.2-7.8-14.6-7.8-25.2c0-11.8,2.9-21.1,8.7-27.9c5.8-6.8,14.3-10.2,25.5-10.2c5,0,9.5,0.5,13.5,1.4c4,0.9,7.2,2.2,9.5,3.7
		v67.9c0,9.3-2.6,16.3-7.7,21.2C556.7,493,549.6,495.4,540.6,495.4z M554.1,404.8c-1.8-1-4.6-1.6-8.3-1.6c-6,0-10.5,2.4-13.3,7.2
		c-2.8,4.8-4.3,11.7-4.3,20.7c0,8.7,1.3,15.2,4,19.5c2.7,4.3,6.9,6.4,12.8,6.4c3.5,0,6.5-0.7,9.1-2.2V404.8z"/>
</g>
</svg>
