<?xml version="1.0" encoding="utf-8"?>
<!-- Generator: Adobe Illustrator 18.0.0, SVG Export Plug-In . SVG Version: 6.00 Build 0)  -->
<!DOCTYPE svg PUBLIC "-//W3C//DTD SVG 1.1//EN" "http://www.w3.org/Graphics/SVG/1.1/DTD/svg11.dtd">
<svg version="1.1" id="Layer_1" xmlns="http://www.w3.org/2000/svg" xmlns:xlink="http://www.w3.org/1999/xlink" x="0px" y="0px"
	 viewBox="0 170.8 1300 375" enable-background="new 0 170.8 1300 375" xml:space="preserve">
<g id="Layer_2">
	<g>
		<g>
			<path fill="#CDDC39" d="M121.1,312.5c-5.5-1.9-10.7-2.6-16-2.6c-6.9,0-12.1,1.3-16.5,3.7v130.5H53.8V298c8.2-3.7,17.5-6.6,29-8.5
				c11.4-1.9,26.4-2.6,45.5-2.6L121.1,312.5z"/>
			<path fill="#CDDC39" d="M194.7,311.7v132.1h-35.1V311.7h-17.1v-22.6h17v-18.9c0-16.7,5.3-29.9,15.5-38.6
				c10.5-8.7,25.5-12.9,44.2-12.9v22.6c-8.2,0-14,2.1-18.8,6.1c-4.2,3.9-6.6,10.5-6.6,20.4v22.1h25.4v22.6L194.7,311.7L194.7,311.7z
				"/>
			<path fill="#CDDC39" d="M247.3,443.9V289.4h34.8v154.2h-34.8V443.9L247.3,443.9z"/>
			<path fill="#CDDC39" d="M386.9,446.4c-22.9,0-40.5-6.9-52.9-20.9c-12.4-13.7-19-33.1-19-57.7c0-24.9,6.1-44.2,18.6-59
				c12.1-14.2,28.7-21.9,49-21.9c9,0,16.5,1,23.4,2.9v-71.9h35.1v216.3c-6.1,3.5-13.7,6.1-23.1,8.2
				C408.2,445.3,397.9,446.4,386.9,446.4z M405.4,309.7c-4.5-1.3-9.7-2.1-15.2-2.1c-14.2,0-24.9,5.3-31,15.5
				c-6.4,10.5-9.5,24.9-9.5,43c0,18.6,3.1,32.6,9,42.6c6.1,9.9,15.5,15,29,15c8.5,0,14.2-1.3,18-3.5L405.4,309.7L405.4,309.7z"/>
			<path fill="#373636" d="M528.9,445.3c-14.2,0-25.2-3.9-32.1-11.9c-7.1-8.2-10.1-17.8-10.1-29.6v-92.3h-17v-22.7h17v-33.7
				l35.1-9.7v43.7h25.5v22.6h-25.5v90.2c0,13.1,5.5,20.4,16.7,20.4c2.4,0,5-0.5,8.5-1.6v21.9c-1.6,0.8-3.9,1.6-7.5,2.4
				C536.3,444.8,532.8,445.3,528.9,445.3z"/>
			<path fill="#373636" d="M662.8,443.9V335.3c0-7.7-2.1-13.7-6.4-18.8c-4.2-4.8-11-7.5-21.1-7.5c-9.2,0-17.5,2.1-24.9,6.4v128.1
				h-35.1V218.7h35.1v77c11.2-5.3,22.9-8.2,34.3-8.2c17.8,0,31.3,4.5,39.6,13.1c8.5,8.7,12.6,20.1,12.6,33.3v109.2h-34.6v0.5h0.4
				L662.8,443.9L662.8,443.9z"/>
			<path fill="#373636" d="M736,443.9V289.4h35.1v154.2H736V443.9z"/>
			<path fill="#373636" d="M896.3,443.9V334.3c0-7.7-2.1-13.5-6.4-18.6c-4.2-4.8-11.2-7.5-21.6-7.5c-5.3,0-9.7,0.3-12.9,1
				c-3.5,0.8-7.1,1.9-10.7,3.3v130.9h-35.1V297.6c7.5-3.5,16-6.1,26.4-8.2c10.5-2.1,21.9-3.1,34.1-3.1c21.6,0,37.1,4.5,46.6,13.1
				s14.5,20.4,14.5,34.1v110.1L896.3,443.9L896.3,443.9L896.3,443.9z"/>
			<path fill="#373636" d="M1024.1,508.4c-11.2,0-21.6-1-30.5-2.9c-9-2.1-16.1-4.5-22.5-8l9.7-23.1c4.5,2.6,9.9,4.8,16.7,6.6
				c6.6,1.9,13.1,2.9,20.4,2.9c12.1,0,21.6-3.1,26.9-9c5.5-6.1,8.7-14.5,8.7-26v-9.7c-6.9,3.7-16.1,5.8-29,5.8
				c-18.8,0-33.7-6.9-45-20.4c-11.2-13.1-17.2-32.1-17.2-55c0-26,6.4-46.1,19.4-61.1c12.4-14.7,31.3-22.5,56-22.5
				c10.7,0,20.9,1,29.1,3.1c8.7,2.1,15.5,4.8,20.9,8.2v148.1c0,20.4-5.5,35.5-16.7,46.3C1059.4,502.9,1043.7,508.4,1024.1,508.4z
				 M1053.6,310.7c-3.9-2.4-9.9-3.5-18-3.5c-12.9,0-23.1,5.3-29,15.5c-6.4,10.5-9.2,25.7-9.2,45c0,19.4,3.1,33.3,8.7,42.6
				c5.8,9.2,15,14,27.9,14c7.7,0,14-1.6,19.9-4.8L1053.6,310.7L1053.6,310.7z"/>
			<path fill="#373636" d="M1157.9,446.1c-8.7,0-16.7-1-24.4-3.1c-7.5-2.1-13.5-4.8-18.6-8.2l9-22.6c2.9,2.4,6.9,4.5,11.9,6.4
				s10.7,2.9,16.5,2.9c7.1,0,12.6-2.1,17-6.1c4.2-3.9,6.6-9.2,6.6-15.7c0-6.9-1.9-11.6-5-15.2c-3.3-3.5-10.5-7.5-21.6-11.4
				c-11-4.2-19-9.7-24.1-17c-5-7.1-7.7-15.2-7.7-24.9c0-12.1,4.5-23.1,13.5-31.8s21.1-12.9,35.4-12.9c8.5,0,15.7,1,22.6,2.9
				c6.6,1.9,12.1,4.5,17.5,8.2l-8.7,20.6c-2.9-2.4-6.4-4.2-10.1-6.1c-3.9-1.9-8.7-2.6-14-2.6c-6.9,0-12.1,2.1-16,5.8
				c-3.9,3.9-5.8,8.7-5.8,14.2c0,5.8,2.1,10.5,5.8,14.2c3.7,3.5,11,7.7,22.1,11.9c10.7,4.2,19,10.1,24.4,17.2c5.3,7.5,8,15.7,8,26
				c0,12.9-5,24.4-15,33.3C1187.6,441.9,1174.4,446.1,1157.9,446.1z"/>
			<rect x="277.1" y="248.3" fill="#373636" width="36" height="35.4"/>
			<rect x="760.8" y="248.3" fill="#CDDC39" width="36" height="35.4"/>
		</g>
		<text transform="matrix(0.7278 0 0 1 1218.2228 331.4029)" fill="#373636" font-family="'Dax-Medium'" font-size="49.0493">TM</text>
	</g>
</g>
</svg>
